<svg xmlns="http://www.w3.org/2000/svg" height="40" viewBox="0 -960 960 960" width="40"><path d="M190-190h45.666l445.668-444.834-45.833-45.834L190-235.499V-190Zm-63.333 63.333v-134.665l554.001-553.501q8.642-8.283 20.071-13.058 11.428-4.776 24.063-4.776 11.967 0 23.666 4.75t21.366 13.417l45.666 45.833q9 9.167 13.417 20.75 4.416 11.583 4.416 23.19 0 12.56-4.474 24.165-4.475 11.606-13.359 20.394L261.332-126.667H126.667Zm642.667-598.5-43.5-43.5 43.5 43.5Zm-111 67.499-22.833-23 45.833 45.834-23-22.834Z"/></svg>